<svg xmlns="http://www.w3.org/2000/svg" viewBox="0 0 320 504" preserveAspectRatio="none"><defs></defs><rect width="320" height="504" fill="#062536"/><path d="M0 0V504" stroke="#27cdd8" stroke-opacity="0.22" stroke-width="1"/><path d="M16 0V504" stroke="#27cdd8" stroke-opacity="0.08" stroke-width="1"/><path d="M32 0V504" stroke="#27cdd8" stroke-opacity="0.08" stroke-width="1"/><path d="M48 0V504" stroke="#27cdd8" stroke-opacity="0.08" stroke-width="1"/><path d="M64 0V504" stroke="#27cdd8" stroke-opacity="0.22" stroke-width="1"/><path d="M80 0V504" stroke="#27cdd8" stroke-opacity="0.08" stroke-width="1"/><path d="M96 0V504" stroke="#27cdd8" stroke-opacity="0.08" stroke-width="1"/><path d="M112 0V504" stroke="#27cdd8" stroke-opacity="0.08" stroke-width="1"/><path d="M128 0V504" stroke="#27cdd8" stroke-opacity="0.22" stroke-width="1"/><path d="M144 0V504" stroke="#27cdd8" stroke-opacity="0.08" stroke-width="1"/><path d="M160 0V504" stroke="#27cdd8" stroke-opacity="0.08" stroke-width="1"/><path d="M176 0V504" stroke="#27cdd8" stroke-opacity="0.08" stroke-width="1"/><path d="M192 0V504" stroke="#27cdd8" stroke-opacity="0.22" stroke-width="1"/><path d="M208 0V504" stroke="#27cdd8" stroke-opacity="0.08" stroke-width="1"/><path d="M224 0V504" stroke="#27cdd8" stroke-opacity="0.08" stroke-width="1"/><path d="M240 0V504" stroke="#27cdd8" stroke-opacity="0.08" stroke-width="1"/><path d="M256 0V504" stroke="#27cdd8" stroke-opacity="0.22" stroke-width="1"/><path d="M272 0V504" stroke="#27cdd8" stroke-opacity="0.08" stroke-width="1"/><path d="M288 0V504" stroke="#27cdd8" stroke-opacity="0.08" stroke-width="1"/><path d="M304 0V504" stroke="#27cdd8" stroke-opacity="0.08" stroke-width="1"/><path d="M320 0V504" stroke="#27cdd8" stroke-opacity="0.22" stroke-width="1"/><path d="M0 0H320" stroke="#27cdd8" stroke-opacity="0.22" stroke-width="1"/><path d="M0 16H320" stroke="#27cdd8" stroke-opacity="0.08" stroke-width="1"/><path d="M0 32H320" stroke="#27cdd8" stroke-opacity="0.08" stroke-width="1"/><path d="M0 48H320" stroke="#27cdd8" stroke-opacity="0.08" stroke-width="1"/><path d="M0 64H320" stroke="#27cdd8" stroke-opacity="0.22" stroke-width="1"/><path d="M0 80H320" stroke="#27cdd8" stroke-opacity="0.08" stroke-width="1"/><path d="M0 96H320" stroke="#27cdd8" stroke-opacity="0.08" stroke-width="1"/><path d="M0 112H320" stroke="#27cdd8" stroke-opacity="0.08" stroke-width="1"/><path d="M0 128H320" stroke="#27cdd8" stroke-opacity="0.22" stroke-width="1"/><path d="M0 144H320" stroke="#27cdd8" stroke-opacity="0.08" stroke-width="1"/><path d="M0 160H320" stroke="#27cdd8" stroke-opacity="0.08" stroke-width="1"/><path d="M0 176H320" stroke="#27cdd8" stroke-opacity="0.08" stroke-width="1"/><path d="M0 192H320" stroke="#27cdd8" stroke-opacity="0.22" stroke-width="1"/><path d="M0 208H320" stroke="#27cdd8" stroke-opacity="0.08" stroke-width="1"/><path d="M0 224H320" stroke="#27cdd8" stroke-opacity="0.08" stroke-width="1"/><path d="M0 240H320" stroke="#27cdd8" stroke-opacity="0.08" stroke-width="1"/><path d="M0 256H320" stroke="#27cdd8" stroke-opacity="0.22" stroke-width="1"/><path d="M0 272H320" stroke="#27cdd8" stroke-opacity="0.08" stroke-width="1"/><path d="M0 288H320" stroke="#27cdd8" stroke-opacity="0.08" stroke-width="1"/><path d="M0 304H320" stroke="#27cdd8" stroke-opacity="0.08" stroke-width="1"/><path d="M0 320H320" stroke="#27cdd8" stroke-opacity="0.22" stroke-width="1"/><path d="M0 336H320" stroke="#27cdd8" stroke-opacity="0.08" stroke-width="1"/><path d="M0 352H320" stroke="#27cdd8" stroke-opacity="0.08" stroke-width="1"/><path d="M0 368H320" stroke="#27cdd8" stroke-opacity="0.08" stroke-width="1"/><path d="M0 384H320" stroke="#27cdd8" stroke-opacity="0.22" stroke-width="1"/><path d="M0 400H320" stroke="#27cdd8" stroke-opacity="0.08" stroke-width="1"/><path d="M0 416H320" stroke="#27cdd8" stroke-opacity="0.08" stroke-width="1"/><path d="M0 432H320" stroke="#27cdd8" stroke-opacity="0.08" stroke-width="1"/><path d="M0 448H320" stroke="#27cdd8" stroke-opacity="0.22" stroke-width="1"/><path d="M0 464H320" stroke="#27cdd8" stroke-opacity="0.08" stroke-width="1"/><path d="M0 480H320" stroke="#27cdd8" stroke-opacity="0.08" stroke-width="1"/><path d="M0 496H320" stroke="#27cdd8" stroke-opacity="0.08" stroke-width="1"/><circle cx="160" cy="250" r="120" fill="none" stroke="#7be9f2" stroke-opacity=".55" stroke-width="1.4" stroke-dasharray="6 6"/><polygon points="160.0,142.0 253.5,304.0 66.5,304.0" fill="none" stroke="#7be9f2" stroke-opacity="0.9" stroke-width="1.6"/><polygon points="160.0,172.0 227.5,289.0 92.5,289.0" fill="none" stroke="#7be9f2" stroke-opacity="0.7" stroke-width="1.6"/><polygon points="160.0,202.0 201.6,274.0 118.4,274.0" fill="none" stroke="#7be9f2" stroke-opacity="0.5" stroke-width="1.6"/><path d="M160 250L320.0 250.0" stroke="#27cdd8" stroke-opacity=".25" stroke-width="1"/><path d="M160 250L298.6 330.0" stroke="#27cdd8" stroke-opacity=".25" stroke-width="1"/><path d="M160 250L240.0 388.6" stroke="#27cdd8" stroke-opacity=".25" stroke-width="1"/><path d="M160 250L160.0 410.0" stroke="#27cdd8" stroke-opacity=".25" stroke-width="1"/><path d="M160 250L80.0 388.6" stroke="#27cdd8" stroke-opacity=".25" stroke-width="1"/><path d="M160 250L21.4 330.0" stroke="#27cdd8" stroke-opacity=".25" stroke-width="1"/><path d="M160 250L0.0 250.0" stroke="#27cdd8" stroke-opacity=".25" stroke-width="1"/><path d="M160 250L21.4 170.0" stroke="#27cdd8" stroke-opacity=".25" stroke-width="1"/><path d="M160 250L80.0 111.4" stroke="#27cdd8" stroke-opacity=".25" stroke-width="1"/><path d="M160 250L160.0 90.0" stroke="#27cdd8" stroke-opacity=".25" stroke-width="1"/><path d="M160 250L240.0 111.4" stroke="#27cdd8" stroke-opacity=".25" stroke-width="1"/><path d="M160 250L298.6 170.0" stroke="#27cdd8" stroke-opacity=".25" stroke-width="1"/><path d="M20 60 C90 20 150 90 300 44" fill="none" stroke="#e8f3f5" stroke-opacity=".32" stroke-width="1.2" stroke-dasharray="1 5" stroke-linecap="round"/><path d="M20 144 C90 104 150 174 300 128" fill="none" stroke="#e8f3f5" stroke-opacity=".32" stroke-width="1.2" stroke-dasharray="1 5" stroke-linecap="round"/><path d="M20 228 C90 188 150 258 300 212" fill="none" stroke="#e8f3f5" stroke-opacity=".32" stroke-width="1.2" stroke-dasharray="1 5" stroke-linecap="round"/><path d="M20 312 C90 272 150 342 300 296" fill="none" stroke="#e8f3f5" stroke-opacity=".32" stroke-width="1.2" stroke-dasharray="1 5" stroke-linecap="round"/><path d="M20 396 C90 356 150 426 300 380" fill="none" stroke="#e8f3f5" stroke-opacity=".32" stroke-width="1.2" stroke-dasharray="1 5" stroke-linecap="round"/><path d="M20 480 C90 440 150 510 300 464" fill="none" stroke="#e8f3f5" stroke-opacity=".32" stroke-width="1.2" stroke-dasharray="1 5" stroke-linecap="round"/><path d="M30 420L290 420" stroke="#e8f3f5" stroke-opacity=".6" stroke-width="1"/><circle cx="30" cy="420" r="2.5" fill="#e8f3f5" fill-opacity=".8"/><circle cx="290" cy="420" r="2.5" fill="#e8f3f5" fill-opacity=".8"/><path d="M30 60L290 60" stroke="#e8f3f5" stroke-opacity=".6" stroke-width="1"/><circle cx="30" cy="60" r="2.5" fill="#e8f3f5" fill-opacity=".8"/><circle cx="290" cy="60" r="2.5" fill="#e8f3f5" fill-opacity=".8"/><path d="M24 100L24 400" stroke="#e8f3f5" stroke-opacity=".6" stroke-width="1"/><circle cx="24" cy="100" r="2.5" fill="#e8f3f5" fill-opacity=".8"/><circle cx="24" cy="400" r="2.5" fill="#e8f3f5" fill-opacity=".8"/><path d="M251 463h31" stroke="#27cdd8" stroke-opacity=".5" stroke-width="1"/><path d="M258 251h30" stroke="#27cdd8" stroke-opacity=".5" stroke-width="1"/><path d="M117 114h39" stroke="#27cdd8" stroke-opacity=".5" stroke-width="1"/><path d="M282 263h34" stroke="#27cdd8" stroke-opacity=".5" stroke-width="1"/><path d="M115 68h28" stroke="#27cdd8" stroke-opacity=".5" stroke-width="1"/><path d="M175 92h16" stroke="#27cdd8" stroke-opacity=".5" stroke-width="1"/><path d="M295 434h36" stroke="#27cdd8" stroke-opacity=".5" stroke-width="1"/><path d="M41 324h26" stroke="#27cdd8" stroke-opacity=".5" stroke-width="1"/><path d="M251 354h37" stroke="#27cdd8" stroke-opacity=".5" stroke-width="1"/><path d="M100 339h14" stroke="#27cdd8" stroke-opacity=".5" stroke-width="1"/><path d="M290 52h15" stroke="#27cdd8" stroke-opacity=".5" stroke-width="1"/><path d="M38 117h21" stroke="#27cdd8" stroke-opacity=".5" stroke-width="1"/><path d="M35 418h28" stroke="#27cdd8" stroke-opacity=".5" stroke-width="1"/><path d="M187 245h32" stroke="#27cdd8" stroke-opacity=".5" stroke-width="1"/><path d="M0 84 H320" stroke="#7be9f2" stroke-opacity="0.5" stroke-width="1"/><path d="M0 168 H320" stroke="#7be9f2" stroke-opacity="0.5" stroke-width="1"/><path d="M0 252 H320" stroke="#7be9f2" stroke-opacity="0.5" stroke-width="1"/><path d="M0 336 H320" stroke="#7be9f2" stroke-opacity="0.5" stroke-width="1"/><path d="M0 420 H320" stroke="#7be9f2" stroke-opacity="0.5" stroke-width="1"/></svg>